<svg width="20" height="20" viewBox="0 0 20 20" fill="none" xmlns="http://www.w3.org/2000/svg">
<path d="M14.0195 8.91334C15.8405 8.91334 17.3165 7.43734 17.3165 5.61634C17.3165 3.79634 15.8405 2.31934 14.0195 2.31934" stroke="white" stroke-width="1.5" stroke-linecap="round" stroke-linejoin="round"/>
<path d="M15.5361 12.4971C16.0801 12.5341 16.6201 12.6121 17.1531 12.7301C17.8921 12.8771 18.7821 13.1801 19.0981 13.8431C19.3001 14.2681 19.3001 14.7631 19.0981 15.1881C18.7831 15.8511 17.8921 16.1541 17.1531 16.3061" stroke="white" stroke-width="1.5" stroke-linecap="round" stroke-linejoin="round"/>
<path fill-rule="evenodd" clip-rule="evenodd" d="M7.591 13.2061C11.281 13.2061 14.433 13.7651 14.433 15.9981C14.433 18.2321 11.301 18.8101 7.591 18.8101C3.901 18.8101 0.75 18.2521 0.75 16.0181C0.75 13.7841 3.881 13.2061 7.591 13.2061Z" stroke="white" stroke-width="1.5" stroke-linecap="round" stroke-linejoin="round"/>
<path fill-rule="evenodd" clip-rule="evenodd" d="M7.59103 10.019C5.15703 10.019 3.20703 8.068 3.20703 5.634C3.20703 3.201 5.15703 1.25 7.59103 1.25C10.025 1.25 11.976 3.201 11.976 5.634C11.976 8.068 10.025 10.019 7.59103 10.019Z" stroke="white" stroke-width="1.5" stroke-linecap="round" stroke-linejoin="round"/>
</svg>
