<svg width="191" height="25" viewBox="0 0 191 25" fill="none" xmlns="http://www.w3.org/2000/svg">
<path d="M30.5209 7.55146H26.7259L26.6457 7.40109C26.0586 6.28302 25.1796 5.34225 24.1006 4.67729C23.0217 4.01233 21.7825 3.64764 20.5129 3.62141C19.2432 3.59519 17.9899 3.90839 16.884 4.52822C15.7781 5.14805 14.8605 6.05171 14.2271 7.14457C14.185 7.19467 14.1519 7.2515 14.1291 7.31263L14.0043 7.55146H10.6903V3.6241H3.56345V24.9946H0V0.0859375H14.2538V1.9877C15.5844 1.06899 17.1089 0.464336 18.7107 0.219898C20.3126 -0.0245396 21.9496 0.0977057 23.4966 0.5773C25.0437 1.05689 26.4599 1.88115 27.6371 2.98714C28.8144 4.09313 29.7215 5.4516 30.2893 6.95882L30.5209 7.55146Z" fill="#25A18E"/>
<path d="M30.5546 10.2285V24.9296H10.9111V21.3914H26.9912V13.7667H10.9111V10.2285H30.5546Z" fill="#25A18E"/>
<path d="M61.7685 0.886719V24.9728H57.7863V7.81267L50.41 19.9132H49.9111L42.5437 7.76844V24.9728H38.5615V0.886719H42.8555L50.1695 12.9253L57.5102 0.886719H61.7685Z" fill="#00509D"/>
<path d="M73.1453 24.9724C71.9444 24.9935 70.7516 24.7731 69.6386 24.3247C68.5256 23.8763 67.5154 23.209 66.6688 22.363C65.7999 21.5308 65.114 20.5291 64.654 19.4209C64.1941 18.3127 63.9701 17.1219 63.9962 15.9236C63.9713 14.7267 64.1959 13.5376 64.6558 12.431C65.1157 11.3244 65.801 10.3241 66.6688 9.49296C67.9467 8.21528 69.5785 7.34393 71.3566 6.98977C73.1347 6.63561 74.9787 6.81465 76.6541 7.50412C78.3294 8.19358 79.7603 9.3623 80.7647 10.8616C81.7691 12.3609 82.3016 14.1229 82.2945 15.9236C82.3065 17.1182 82.0778 18.3031 81.6218 19.4087C81.1658 20.5142 80.4917 21.5181 79.6393 22.3612C78.7868 23.2043 77.7732 23.8696 76.6579 24.3181C75.5427 24.7665 74.3484 24.989 73.1453 24.9724ZM69.2968 19.8155C70.3287 20.8077 71.7089 21.3625 73.1453 21.3625C74.5818 21.3625 75.9619 20.8077 76.9939 19.8155C77.506 19.3058 77.9084 18.6978 78.1764 18.0287C78.4444 17.3596 78.5725 16.6434 78.5529 15.9236C78.5713 15.2052 78.4426 14.4907 78.1746 13.8232C77.9066 13.1557 77.5049 12.5492 76.9939 12.0404C75.9619 11.0482 74.5818 10.4935 73.1453 10.4935C71.7089 10.4935 70.3287 11.0482 69.2968 12.0404C68.7841 12.5484 68.3808 13.1546 68.1112 13.8221C67.8417 14.4897 67.7116 15.2046 67.7289 15.9236C67.7104 16.644 67.8399 17.3606 68.1095 18.0298C68.379 18.6989 68.783 19.3065 69.2968 19.8155Z" fill="#00509D"/>
<path d="M93.3859 7.32742C94.2778 7.29102 95.1676 7.44066 95.9977 7.7667C96.8278 8.09274 97.5799 8.58793 98.2054 9.22034C98.84 9.92355 99.3288 10.7441 99.6437 11.635C99.9586 12.526 100.093 13.4698 100.041 14.4126V24.974H96.299V14.7929C96.3354 14.2561 96.2617 13.7175 96.0826 13.2098C95.9034 12.702 95.6225 12.2355 95.2567 11.8386C94.8789 11.483 94.432 11.2078 93.9433 11.0299C93.4547 10.8519 92.9345 10.7749 92.4148 10.8037C91.8286 10.7786 91.2435 10.8741 90.6962 11.0841C90.1489 11.2942 89.6513 11.6143 89.2344 12.0243C88.7954 12.537 88.4624 13.1305 88.2545 13.771C88.0467 14.4115 87.9679 15.0864 88.0229 15.7571V24.974H84.2812V7.77854H88.0229V9.98104C88.5958 9.10266 89.3957 8.39306 90.339 7.92629C91.2823 7.45953 92.3346 7.25271 93.3859 7.32742Z" fill="#00509D"/>
<path d="M106.205 4.48808C105.987 4.71225 105.725 4.8905 105.436 5.01224C105.147 5.13397 104.836 5.19671 104.521 5.19671C104.207 5.19671 103.896 5.13397 103.607 5.01224C103.318 4.8905 103.056 4.71225 102.838 4.48808C102.612 4.27324 102.434 4.01488 102.313 3.72889C102.192 3.4429 102.131 3.13534 102.134 2.82515C102.131 2.51523 102.19 2.2078 102.308 1.92078C102.425 1.63376 102.6 1.37288 102.82 1.15337C103.039 0.925119 103.303 0.744403 103.596 0.622611C103.889 0.50082 104.204 0.440594 104.521 0.445733C104.838 0.439656 105.152 0.499491 105.443 0.621377C105.735 0.743263 105.997 0.924491 106.214 1.15337C106.44 1.36974 106.62 1.62945 106.743 1.91678C106.865 2.20412 106.928 2.51313 106.927 2.82515C106.928 3.13663 106.864 3.44497 106.74 3.73103C106.616 4.01709 106.434 4.27477 106.205 4.48808ZM102.642 24.974V7.77857H106.383V24.974H102.642Z" fill="#00509D"/>
<path d="M118.686 24.9733C116.591 25.0408 114.523 24.4898 112.744 23.39C111.146 22.3699 109.943 20.842 109.332 19.0557L112.762 17.0655C113.73 19.7722 115.74 21.1255 118.793 21.1255C119.986 21.2089 121.173 20.8978 122.169 20.241C122.526 19.9771 122.814 19.6323 123.01 19.2353C123.205 18.8382 123.302 18.4006 123.292 17.9589C123.308 17.5116 123.204 17.068 122.989 16.6744C122.775 16.2808 122.458 15.9516 122.071 15.721C120.712 14.9837 119.267 14.4134 117.768 14.0227L114.989 12.9966C114.181 12.6829 113.412 12.2762 112.699 11.7848C111.937 11.2807 111.322 10.5848 110.918 9.76803C110.509 8.88712 110.307 7.92503 110.33 6.95519C110.286 5.99023 110.47 5.0285 110.868 4.14689C111.266 3.26529 111.865 2.48826 112.619 1.87793C114.172 0.617339 116.129 -0.048075 118.134 0.00270583C119.935 -0.0357609 121.707 0.453409 123.229 1.40912C124.697 2.36931 125.861 3.7215 126.588 5.30995L123.229 7.2294C122.845 6.20722 122.145 5.33145 121.23 4.72647C120.316 4.12149 119.232 3.81807 118.134 3.8593C117.145 3.80787 116.168 4.09171 115.363 4.66423C115.028 4.92042 114.758 5.2521 114.577 5.63194C114.396 6.01179 114.308 6.42894 114.321 6.84905C114.308 7.25565 114.4 7.65879 114.587 8.02076C114.774 8.38274 115.05 8.69174 115.39 8.91887C116.586 9.63919 117.883 10.1788 119.238 10.5199L121.225 11.2629L123.007 11.944C123.648 12.1539 124.25 12.4677 124.788 12.8728C125.234 13.2517 125.653 13.6595 126.045 14.0934C126.484 14.5718 126.807 15.1436 126.989 15.7652C127.179 16.4569 127.271 17.1713 127.265 17.8881C127.305 18.8753 127.11 19.858 126.697 20.7568C126.284 21.6556 125.663 22.4454 124.886 23.0627C123.108 24.3989 120.914 25.0749 118.686 24.9733Z" fill="#00509D"/>
<path d="M138.205 11.2009H133.911V19.4625C133.884 19.7366 133.912 20.0135 133.994 20.2765C134.077 20.5394 134.213 20.7831 134.392 20.9928C134.794 21.3346 135.307 21.5201 135.836 21.5147C136.468 21.5147 137.261 21.5147 138.205 21.5147V24.8494C135.337 25.1944 133.288 24.9467 132.041 24.1064C130.793 23.2661 130.17 21.727 130.17 19.4802V11.2009H126.98V7.66277H130.17V3.91232L133.911 2.80664V7.62739H138.205V11.2009Z" fill="#00509D"/>
<path d="M154.276 7.32596H158.017V24.5303H154.276V22.0536C153.594 23.0058 152.682 23.7723 151.623 24.2824C150.564 24.7925 149.393 25.0299 148.218 24.9725C147.07 24.9819 145.933 24.7503 144.881 24.293C143.83 23.8357 142.887 23.163 142.116 22.3189C141.291 21.4704 140.643 20.4687 140.209 19.3714C139.775 18.274 139.563 17.1025 139.585 15.9237C139.557 14.7389 139.767 13.5604 140.201 12.4565C140.635 11.3526 141.286 10.3453 142.116 9.49308C142.892 8.65793 143.836 7.99408 144.887 7.54456C145.939 7.09504 147.073 6.86988 148.218 6.88369C149.39 6.82567 150.557 7.05902 151.615 7.56257C152.673 8.06612 153.588 8.82394 154.276 9.76729V7.32596ZM144.886 19.8687C145.938 20.8736 147.342 21.4349 148.801 21.4349C150.261 21.4349 151.665 20.8736 152.717 19.8687C153.232 19.3503 153.636 18.7333 153.904 18.0551C154.172 17.377 154.299 16.6518 154.276 15.9237C154.298 15.197 154.171 14.4734 153.903 13.7967C153.635 13.1201 153.232 12.5046 152.717 11.9875C151.665 10.9826 150.261 10.4213 148.801 10.4213C147.342 10.4213 145.938 10.9826 144.886 11.9875C144.373 12.5058 143.971 13.1215 143.703 13.7979C143.435 14.4742 143.307 15.1972 143.327 15.9237C143.306 16.6516 143.434 17.3761 143.702 18.054C143.97 18.7318 144.372 19.3491 144.886 19.8687Z" fill="#00509D"/>
<path d="M164.235 12.0509C164.243 12.3433 164.338 12.6269 164.508 12.866C164.677 13.1052 164.914 13.2894 165.189 13.3954C165.93 13.7566 166.702 14.0525 167.496 14.28L170.249 15.1203C171.18 15.4016 172.001 15.9606 172.601 16.7213C173.254 17.5596 173.591 18.5986 173.554 19.658C173.582 20.414 173.42 21.1651 173.085 21.8443C172.749 22.5234 172.249 23.1094 171.63 23.55C170.214 24.5282 168.516 25.0219 166.792 24.9564C165.256 24.9986 163.737 24.6321 162.391 23.8949C161.2 23.2213 160.262 22.1812 159.719 20.9317L162.944 19.0742C163.205 19.8589 163.728 20.5318 164.425 20.982C165.123 21.4322 165.955 21.6329 166.783 21.5509C168.752 21.5509 169.732 20.914 169.732 19.6226C169.717 19.3332 169.619 19.054 169.45 18.8176C169.282 18.5811 169.049 18.3971 168.779 18.287C168.046 17.9011 167.276 17.59 166.48 17.3582L163.728 16.5179C162.803 16.2412 161.982 15.6996 161.367 14.9611C160.71 14.1656 160.371 13.1582 160.414 12.1306C160.387 11.3994 160.535 10.6723 160.844 10.0084C161.154 9.34441 161.617 8.76232 162.195 8.30934C163.486 7.32086 165.083 6.81089 166.712 6.86754C168.051 6.8412 169.373 7.16778 170.543 7.814C171.646 8.4293 172.544 9.35174 173.126 10.4676L169.973 12.2367C169.743 11.8052 169.429 11.4236 169.048 11.1141C168.668 10.8046 168.23 10.5735 167.759 10.4343C167.287 10.2951 166.793 10.2506 166.304 10.3034C165.816 10.3562 165.342 10.5053 164.912 10.7418C164.695 10.8829 164.518 11.0778 164.399 11.3073C164.281 11.5369 164.224 11.7932 164.235 12.0509Z" fill="#00509D"/>
<path d="M184.334 7.32617C185.226 7.28977 186.116 7.43942 186.946 7.76546C187.776 8.09149 188.528 8.58669 189.154 9.21909C189.788 9.9223 190.277 10.7429 190.592 11.6338C190.907 12.5247 191.042 13.4686 190.989 14.4113V24.9728H187.247V14.7917C187.285 14.2555 187.212 13.7173 187.035 13.2095C186.857 12.7018 186.578 12.235 186.214 11.8373C185.835 11.4826 185.388 11.208 184.9 11.0301C184.411 10.8522 183.891 10.7747 183.372 10.8024C182.786 10.7773 182.201 10.8728 181.653 11.0829C181.106 11.2929 180.608 11.613 180.191 12.0231C179.752 12.5357 179.419 13.1293 179.212 13.7698C179.004 14.4102 178.925 15.0851 178.98 15.7558V24.9728H175.238V0.886719H178.98V9.97979C179.551 9.10212 180.35 8.39288 181.292 7.9261C182.233 7.45933 183.284 7.25214 184.334 7.32617Z" fill="#00509D"/>
</svg>
